<svg width="6" height="6" viewBox="0 0 6 6" fill="none" xmlns="http://www.w3.org/2000/svg">
<path d="M2.69338 0C1.20601 0 0 1.20601 0 2.69338C0 4.18075 1.20601 5.38676 2.69338 5.38676C4.18075 5.38676 5.38676 4.18075 5.38676 2.69338C5.38676 1.20601 4.18075 0 2.69338 0ZM2.88577 3.99198C2.88577 4.01843 2.86412 4.04007 2.83767 4.04007H2.54909C2.52264 4.04007 2.501 4.01843 2.501 3.99198V2.35671C2.501 2.33026 2.52264 2.30861 2.54909 2.30861H2.83767C2.86412 2.30861 2.88577 2.33026 2.88577 2.35671V3.99198ZM2.69338 1.92384C2.61787 1.9223 2.54596 1.89122 2.4931 1.83727C2.44024 1.78332 2.41064 1.7108 2.41064 1.63527C2.41064 1.55974 2.44024 1.48721 2.4931 1.43326C2.54596 1.37931 2.61787 1.34823 2.69338 1.34669C2.7689 1.34823 2.8408 1.37931 2.89366 1.43326C2.94652 1.48721 2.97613 1.55974 2.97613 1.63527C2.97613 1.7108 2.94652 1.78332 2.89366 1.83727C2.8408 1.89122 2.7689 1.9223 2.69338 1.92384Z" fill="#CFD0CF"/>
</svg>
