<svg width="127" height="29" viewBox="0 0 127 29" fill="none" xmlns="http://www.w3.org/2000/svg">
<path d="M0.982422 0.709184H7.08227C9.1976 0.709184 10.5572 1.56282 10.711 3.4246H0.982422V0.709184ZM10.711 3.4246H13.9936V27.8595H10.711V3.4246ZM17.6224 0.709184H23.7242V3.4246H13.9936C14.1475 1.56282 15.4994 0.709184 17.6224 0.709184ZM23.7242 8.46533H27.0068V13.3515H27.0452C27.8548 10.5975 29.6317 7.99988 32.4893 7.99988C32.6824 7.99605 32.8754 8.00898 33.0663 8.03851V11.4434C29.9779 11.3275 27.7375 12.3357 27.0049 13.6934V27.8595H23.7242V8.46533ZM35.3835 18.4695C35.3835 15.1747 37.1142 12.8475 39.9026 11.6848C39.4776 12.9247 39.2065 14.4756 39.0911 16.376H49.7485C49.7774 14.8078 49.5956 13.2429 49.2082 11.7234C51.987 12.9633 53.4158 15.4065 53.2235 18.7804H39.0527C39.0911 21.069 39.3219 23.2398 40.0142 24.9471C36.8508 23.937 35.3835 21.7276 35.3835 18.4695ZM44.4641 10.864C42.9072 10.8358 41.3598 11.1126 39.9084 11.679C40.7968 9.19729 42.341 7.99409 44.6564 7.99409C46.9352 7.99409 48.4409 9.23592 49.2139 11.7176C47.7013 11.1244 46.0877 10.8344 44.4641 10.864ZM40.0238 24.9413C41.2987 25.3662 42.8814 25.5613 44.7737 25.5613C46.2839 25.5808 47.7901 25.3983 49.2524 25.0186C48.4409 27.1894 46.8198 28.3134 44.6948 28.3134C42.2968 28.3192 40.8295 27.002 40.018 24.9471L40.0238 24.9413ZM49.8312 21.4901H53.3446C52.8812 23.3499 51.2601 24.4353 49.2524 25.0186C49.6265 23.8819 49.8199 22.693 49.8255 21.4959L49.8312 21.4901ZM56.2792 18.4637C56.2792 15.1689 58.0099 12.8417 60.7964 11.679C60.3714 12.9189 60.1002 14.4698 59.9848 16.3702H70.6423C70.6711 14.802 70.4894 13.2371 70.1019 11.7176C72.8807 12.9575 74.3095 15.4007 74.1172 18.7747H59.9406C59.9791 21.0633 60.2118 23.2341 60.9021 24.9413C57.733 23.937 56.2734 21.7276 56.2734 18.4695L56.2792 18.4637ZM65.3463 10.864C63.7894 10.836 62.242 11.1128 60.7906 11.679C61.679 9.19729 63.2232 7.99409 65.5386 7.99409C67.8173 7.99409 69.3231 9.23592 70.0961 11.7176C68.5835 11.1244 66.9698 10.8344 65.3463 10.864ZM60.906 24.9471C62.1809 25.372 63.7636 25.5671 65.6559 25.5671C67.1661 25.5866 68.6723 25.4041 70.1346 25.0244C69.3231 27.1952 67.702 28.3192 65.5789 28.3192C63.1848 28.3192 61.7175 27.002 60.906 24.9471ZM70.7134 21.4959H74.2268C73.7634 23.3557 72.1422 24.4411 70.1346 25.0244C70.5112 23.8861 70.7066 22.6953 70.7134 21.4959ZM77.1614 21.4553H80.7132C80.6812 21.8297 80.6683 22.2055 80.6747 22.5813C80.6609 23.485 80.7775 24.386 81.0209 25.2561C78.6671 24.5976 77.1998 23.2785 77.1556 21.4553H77.1614ZM89.9034 24.3252C89.9034 22.2703 88.9418 20.9899 85.965 19.8658L82.4901 18.5468C79.3228 17.3455 78.0882 16.2987 78.0882 14.4369C78.0882 12.9247 79.0132 11.8007 80.8286 11.1808C80.7839 11.4236 80.7582 11.6697 80.7516 11.9166C80.7516 14.0101 81.6016 14.7865 84.5362 15.9105L87.8168 17.1524C90.9841 18.3536 92.4514 19.6727 92.4514 21.7276C92.4514 23.3557 91.4899 24.4315 89.8245 25.063C89.8698 24.8195 89.8961 24.5728 89.9034 24.3252ZM84.8477 7.99988C87.088 7.99988 88.3226 9.12391 88.863 11.0629C87.8207 10.7539 86.5092 10.5975 84.8862 10.5975C83.2259 10.5975 81.8747 10.7906 80.8324 11.1769C81.0997 9.55072 82.3728 7.99988 84.8477 7.99988ZM81.0247 25.2561C82.3363 25.5985 83.6868 25.7679 85.0419 25.7602C86.9323 25.7602 88.5938 25.5285 89.8284 25.063C89.5207 26.7297 88.0534 28.3192 85.3112 28.3192C83.0689 28.3192 81.6401 27.2338 81.0209 25.2561H81.0247ZM88.8591 11.0571C91.3687 11.7177 92.4514 13.0734 92.6821 14.6262H89.1687C89.2567 13.4275 89.1522 12.2225 88.8591 11.0571ZM101.057 8.16018C101.674 5.91213 103.103 4.39992 105.188 3.77997L101.945 16.8511H112.872L109.589 3.78384C111.674 4.40379 113.103 5.90828 113.722 8.16405L119.087 27.8634H115.616L113.532 19.5588H101.253L99.207 27.8634H95.732L101.057 8.16018ZM105.616 1.98964C105.888 0.942874 106.349 0.251465 107.393 0.251465C108.438 0.251465 108.899 0.950599 109.168 1.98964L109.593 3.77417C108.155 3.35954 106.63 3.35954 105.191 3.77417L105.616 1.98964ZM123.308 0.709184H126.551V27.8595H123.308V0.709184Z" fill="url(#paint0_linear_501_9822)"/>
<defs>
<linearGradient id="paint0_linear_501_9822" x1="-1.07914" y1="5.76008" x2="13.5238" y2="59.203" gradientUnits="userSpaceOnUse">
<stop offset="0.0600381" stop-color="#4F46E5"/>
<stop offset="0.746571" stop-color="#1EB792"/>
</linearGradient>
</defs>
</svg>
