<svg width="19" height="14" viewBox="0 0 19 14" fill="none" xmlns="http://www.w3.org/2000/svg">
<path d="M1 7C1 7 3.82353 1 9.82353 1C15.8235 1 18.6471 7 18.6471 7C18.6471 7 15.8235 13 9.82353 13C3.82353 13 1 7 1 7Z" stroke="#828784" stroke-width="0.652778" stroke-linecap="round" stroke-linejoin="round"/>
<g clip-path="url(#clip0_1383_5795)">
<path d="M9.99939 2.62527C7.58337 2.62527 5.62439 4.58426 5.62439 7.00027C5.62439 9.41629 7.58337 11.3753 9.99939 11.3753C12.4154 11.3753 14.3744 9.41629 14.3744 7.00027C14.3744 4.58426 12.4154 2.62527 9.99939 2.62527Z" fill="#828784"/>
<path d="M9.40377 7.152C9.40377 7.028 9.42577 6.934 9.46977 6.87C9.51777 6.802 9.59577 6.746 9.70377 6.702L10.0218 6.57C10.1618 6.51 10.2718 6.456 10.3518 6.408C10.4318 6.36 10.4978 6.296 10.5498 6.216C10.6058 6.132 10.6338 6.026 10.6338 5.898C10.6338 5.726 10.5798 5.586 10.4718 5.478C10.3638 5.37 10.2098 5.316 10.0098 5.316C9.82177 5.316 9.66977 5.37 9.55377 5.478C9.44177 5.586 9.37377 5.732 9.34977 5.916H8.65377C8.66177 5.676 8.72777 5.468 8.85177 5.292C8.97977 5.116 9.14577 4.98 9.34977 4.884C9.55777 4.788 9.78177 4.74 10.0218 4.74C10.2658 4.74 10.4858 4.788 10.6818 4.884C10.8818 4.976 11.0398 5.108 11.1558 5.28C11.2718 5.448 11.3298 5.646 11.3298 5.874C11.3298 6.158 11.2538 6.394 11.1018 6.582C10.9498 6.766 10.7458 6.912 10.4898 7.02L10.2858 7.11C10.2258 7.134 10.1818 7.156 10.1538 7.176C10.1258 7.196 10.1078 7.222 10.0998 7.254C10.0918 7.286 10.0878 7.33 10.0878 7.386V7.836H9.40377V7.152ZM9.36777 9V8.256H10.1178V9H9.36777Z" fill="white"/>
</g>
<defs>
<clipPath id="clip0_1383_5795">
<rect width="10" height="10" fill="white" transform="translate(5 2)"/>
</clipPath>
</defs>
</svg>
